<svg xmlns="http://www.w3.org/2000/svg" viewBox="0 0 28.17 96.79"><style>.st0,.st1,.st2{fill:none;stroke:#edc302;stroke-width:1.2429;stroke-miterlimit:30}.st1,.st2{stroke-width:.6214;stroke-linecap:round}.st2{stroke-width:1.2429}</style><g id="Knife_-_Harlan_1_"><path class="st0" d="M15.39 30.04l3.01 2.89s.12 28.38-4.32 45.78c-4.44-17.4-4.32-45.78-4.32-45.78l3.05-2.89"/><path class="st1" d="M14.08 41.73v26.31"/><path class="st2" d="M11.67 4.57h4.82c2.08 9.91 0 19.15 0 19.15h-4.82s-2.08-9.24 0-19.15z"/><path class="st1" d="M16.98 11.77l-5.58 2.35m5.58-4.21l-5.58 2.35m5.58-4.21L11.4 10.4m5.58-4.21L11.4 8.54m5.58-4.21L11.4 6.68m5.58 6.95l-5.58 2.36m5.58-.5l-5.58 2.36m5.58-.5l-5.58 2.36m5.58-.5l-5.58 2.36m5.58-.5l-5.58 2.36"/><path class="st2" d="M15.91 2.45a1.83 1.83 0 00-3.66 0m-.94 2.12h5.63a1.06 1.06 0 000-2.12h-5.63a1.06 1.06 0 000 2.12zm10.64 18.5c-1.67 0-3.02 1.35-3.02 3.02s1.35 3.02 3.02 3.02 5.25-3.02 5.25-3.02-3.58-3.02-5.25-3.02zM6.21 29.12c1.67 0 3.02-1.35 3.02-3.02s-1.35-3.02-3.02-3.02S.96 26.1.96 26.1s3.58 3.02 5.25 3.02z"/><path d="M9.27 26.09c0-.96-.46-1.81-1.16-2.37h11.98c-.7.55-1.16 1.4-1.16 2.37 0 .07.02.13.02.2a3.814 3.814 0 00-3.4 2.92l-1.47 6.32-1.47-6.32a3.792 3.792 0 00-3.36-2.92c0-.06.02-.13.02-.2z" fill="none" stroke="#edc302" stroke-width="1.243" stroke-linecap="square" stroke-miterlimit="30"/><path class="st0" d="M15.85 93.7c0 1.36-.79 2.47-1.77 2.47s-1.77-1.11-1.77-2.47 1.77-4.18 1.77-4.18 1.77 2.82 1.77 4.18z"/></g></svg>