# Blender v2.80 (sub 75) OBJ File: 'knives.blend'
# www.blender.org
mtllib magGlass1.mtl
o mag.001_mag.006
v 3.361189 42.322113 3.136651
v 3.361189 44.520805 3.077552
v 3.790126 42.364693 3.136651
v 4.202587 42.489635 3.136651
v 4.582708 42.692913 3.136651
v 4.915866 42.966095 3.136651
v 5.189287 43.299534 3.136652
v 5.392485 43.679577 3.136652
v 5.517585 44.092155 3.136652
v 5.559847 44.520805 3.136652
v 5.517585 44.949860 3.136652
v 5.392485 45.362442 3.136652
v 5.189287 45.742481 3.136652
v 4.915866 46.075523 3.136652
v 4.582708 46.349102 3.136652
v 4.202587 46.552376 3.136652
v 3.790126 46.677315 3.136652
v 3.361189 46.719498 3.136652
v 2.932253 42.364693 3.136651
v 2.519804 42.489635 3.136651
v 2.139687 42.692913 3.136651
v 1.806508 42.966095 3.136651
v 1.533080 43.299534 3.136652
v 1.329903 43.679577 3.136652
v 1.204786 44.092155 3.136652
v 1.162540 44.520805 3.136652
v 1.204786 44.949860 3.136652
v 1.329898 45.362442 3.136652
v 1.533076 45.742481 3.136652
v 1.806508 46.075523 3.136652
v 2.139683 46.349102 3.136652
v 2.519804 46.552376 3.136652
v 2.932253 46.677315 3.136652
v 3.361189 42.578922 3.129693
v 3.739990 42.616531 3.129695
v 4.104332 42.726894 3.129694
v 4.440063 42.906433 3.129695
v 4.734280 43.147682 3.129694
v 4.975758 43.442169 3.129695
v 5.155235 43.777847 3.129694
v 5.265726 44.142246 3.129695
v 5.303051 44.520817 3.129695
v 5.265723 44.899769 3.129695
v 5.155235 45.264164 3.129695
v 4.975788 45.599785 3.129695
v 4.734280 45.893959 3.129695
v 4.439996 46.135609 3.129695
v 4.104333 46.315109 3.129695
v 3.740084 46.425442 3.129695
v 3.361189 46.462711 3.129696
v 2.982389 42.616531 3.129695
v 2.618061 42.726887 3.129694
v 2.282330 42.906437 3.129695
v 1.988091 43.147690 3.129694
v 1.746611 43.442169 3.129695
v 1.567152 43.777847 3.129694
v 1.456646 44.142246 3.129695
v 1.419335 44.520817 3.129695
v 1.456649 44.899769 3.129695
v 1.567149 45.264168 3.129695
v 1.746577 45.599789 3.129695
v 1.988091 45.893944 3.129695
v 2.282393 46.135609 3.129695
v 2.618059 46.315109 3.129695
v 2.982295 46.425442 3.129695
v 3.361189 42.447567 3.133248
v 3.765632 42.487720 3.133249
v 4.154589 42.605537 3.133249
v 4.513026 42.797222 3.133249
v 4.827159 43.054802 3.133249
v 5.084975 43.369209 3.133249
v 5.276585 43.727581 3.133249
v 5.394549 44.116627 3.133249
v 5.434399 44.520809 3.133249
v 5.394548 44.925388 3.133249
v 5.276585 45.314434 3.133249
v 5.084991 45.672768 3.133250
v 4.827159 45.986828 3.133250
v 4.512989 46.244812 3.133250
v 4.154590 46.436466 3.133250
v 3.765683 46.554272 3.133250
v 3.361189 46.594059 3.133250
v 2.956748 42.487720 3.133249
v 2.567802 42.605534 3.133249
v 2.209368 42.797226 3.133249
v 1.895214 43.054806 3.133249
v 1.637393 43.369209 3.133249
v 1.445801 43.727581 3.133249
v 1.327822 44.116627 3.133249
v 1.287987 44.520809 3.133249
v 1.327824 44.925388 3.133249
v 1.445798 45.314434 3.133249
v 1.637372 45.672775 3.133250
v 1.895214 45.986820 3.133250
v 2.209401 46.244812 3.133250
v 2.567802 46.436466 3.133250
v 2.956696 46.554272 3.133250
v 3.361189 42.707397 3.126226
v 3.714916 42.742516 3.126227
v 4.055174 42.845585 3.126226
v 4.368696 43.013245 3.126227
v 4.643438 43.238525 3.126226
v 4.868937 43.513527 3.126227
v 5.036544 43.827003 3.126226
v 5.139727 44.167301 3.126227
v 5.174581 44.520821 3.126227
v 5.139723 44.874706 3.126227
v 5.036544 45.214993 3.126227
v 4.868976 45.528400 3.126228
v 4.643438 45.803120 3.126228
v 4.368610 46.028790 3.126228
v 4.055175 46.196407 3.126228
v 3.715038 46.299438 3.126228
v 3.361189 46.334244 3.126228
v 3.007463 42.742516 3.126227
v 2.667219 42.845581 3.126226
v 2.353696 43.013248 3.126227
v 2.078933 43.238533 3.126226
v 1.853433 43.513527 3.126227
v 1.685842 43.827003 3.126226
v 1.582646 44.167301 3.126227
v 1.547804 44.520821 3.126227
v 1.582650 44.874706 3.126227
v 1.685839 45.215000 3.126227
v 1.853390 45.528404 3.126228
v 2.078933 45.803104 3.126228
v 2.353778 46.028790 3.126228
v 2.667217 46.196407 3.126228
v 3.007343 46.299438 3.126228
vt 0.511565 0.143776
vt 0.499988 0.499955
vt 0.441863 0.148417
vt 0.374373 0.166485
vt 0.311723 0.197417
vt 0.256322 0.239912
vt 0.210275 0.292486
vt 0.175354 0.352988
vt 0.152914 0.419168
vt 0.143811 0.488383
vt 0.148399 0.558113
vt 0.166493 0.625609
vt 0.197405 0.688237
vt 0.239950 0.743636
vt 0.292489 0.789716
vt 0.352983 0.824639
vt 0.419133 0.847045
vt 0.488412 0.856142
vt 0.580817 0.152933
vt 0.646989 0.175345
vt 0.707499 0.210280
vt 0.760028 0.256283
vt 0.802564 0.311736
vt 0.833480 0.374377
vt 0.851577 0.441876
vt 0.856164 0.511533
vt 0.847060 0.580819
vt 0.824620 0.646999
vt 0.789711 0.707488
vt 0.743657 0.760003
vt 0.688232 0.802578
vt 0.625598 0.833498
vt 0.558135 0.851562
vt 0.514073 0.066585
vt 0.429259 0.072230
vt 0.418045 0.004443
vt 0.516305 -0.002096
vt 0.347155 0.094216
vt 0.322937 0.029912
vt 0.270929 0.131849
vt 0.234631 0.073506
vt 0.203515 0.183555
vt 0.156530 0.133412
vt 0.147487 0.247525
vt 0.091622 0.207520
vt 0.105001 0.321132
vt 0.042404 0.292793
vt 0.077699 0.401655
vt 0.010776 0.386075
vt 0.066623 0.485870
vt -0.002055 0.483638
vt 0.072205 0.570712
vt 0.004411 0.581922
vt 0.094220 0.652835
vt 0.029915 0.677060
vt 0.131835 0.729040
vt 0.073493 0.765347
vt 0.183595 0.796439
vt 0.133454 0.843424
vt 0.247515 0.852500
vt 0.207498 0.908364
vt 0.321129 0.894997
vt 0.292786 0.957600
vt 0.401622 0.922264
vt 0.386040 0.989191
vt 0.485903 0.933328
vt 0.483671 1.002007
vt 0.598341 0.077725
vt 0.613933 0.010809
vt 0.678843 0.104994
vt 0.707185 0.042400
vt 0.752464 0.147498
vt 0.792473 0.091637
vt 0.816382 0.203475
vt 0.866524 0.156488
vt 0.868139 0.270946
vt 0.926485 0.234655
vt 0.905752 0.347159
vt 0.970057 0.322943
vt 0.927771 0.429284
vt 0.995565 0.418080
vt 0.933352 0.514041
vt 1.002030 0.516270
vt 0.922276 0.598340
vt 0.989200 0.613927
vt 0.894973 0.678860
vt 0.957569 0.707209
vt 0.852494 0.752463
vt 0.908356 0.792481
vt 0.796463 0.816358
vt 0.843448 0.866497
vt 0.729035 0.868150
vt 0.765340 0.926495
vt 0.652816 0.905778
vt 0.677034 0.970089
vt 0.570725 0.927761
vt 0.581928 0.995558
vt 0.512790 0.106054
vt 0.435705 0.111185
vt 0.361072 0.131169
vt 0.291787 0.165375
vt 0.230517 0.212372
vt 0.179593 0.270514
vt 0.140974 0.337421
vt 0.116159 0.410611
vt 0.106092 0.487154
vt 0.111166 0.564270
vt 0.131174 0.638915
vt 0.165362 0.708176
vt 0.212412 0.769440
vt 0.270513 0.820397
vt 0.337417 0.859020
vt 0.410575 0.883802
vt 0.487186 0.893859
vt 0.589380 0.116179
vt 0.662555 0.140969
vt 0.729473 0.179601
vt 0.787567 0.230476
vt 0.834608 0.291805
vt 0.868797 0.361077
vt 0.888811 0.435720
vt 0.893883 0.512759
vt 0.883816 0.589382
vt 0.858999 0.662569
vt 0.820391 0.729466
vt 0.769462 0.787542
vt 0.708171 0.834622
vt 0.638900 0.868820
vt 0.564289 0.888800
vn -0.0000 -0.0269 -0.9996
vn 0.0000 -0.0000 -1.0000
vn 0.0053 -0.0264 -0.9996
vn 0.0103 -0.0249 -0.9996
vn 0.0150 -0.0224 -0.9996
vn 0.0190 -0.0190 -0.9996
vn 0.0224 -0.0149 -0.9996
vn 0.0249 -0.0103 -0.9996
vn 0.0264 -0.0052 -0.9996
vn 0.0269 -0.0000 -0.9996
vn 0.0264 0.0052 -0.9996
vn 0.0249 0.0103 -0.9996
vn 0.0224 0.0150 -0.9996
vn 0.0190 0.0190 -0.9996
vn 0.0150 0.0224 -0.9996
vn 0.0103 0.0249 -0.9996
vn 0.0052 0.0264 -0.9996
vn -0.0000 0.0269 -0.9996
vn -0.0053 -0.0264 -0.9996
vn -0.0103 -0.0249 -0.9996
vn -0.0150 -0.0224 -0.9996
vn -0.0190 -0.0190 -0.9996
vn -0.0224 -0.0149 -0.9996
vn -0.0249 -0.0103 -0.9996
vn -0.0264 -0.0052 -0.9996
vn -0.0269 -0.0000 -0.9996
vn -0.0264 0.0052 -0.9996
vn -0.0249 0.0103 -0.9996
vn -0.0224 0.0150 -0.9996
vn -0.0190 0.0190 -0.9996
vn -0.0150 0.0224 -0.9996
vn -0.0103 0.0249 -0.9996
vn -0.0052 0.0264 -0.9996
vn -0.0000 -0.0271 -0.9996
vn 0.0053 -0.0266 -0.9996
vn 0.0104 -0.0250 -0.9996
vn 0.0150 -0.0225 -0.9996
vn 0.0151 -0.0225 -0.9996
vn 0.0191 -0.0191 -0.9996
vn 0.0192 -0.0192 -0.9996
vn 0.0225 -0.0150 -0.9996
vn 0.0225 -0.0151 -0.9996
vn 0.0250 -0.0104 -0.9996
vn 0.0266 -0.0053 -0.9996
vn 0.0271 -0.0000 -0.9996
vn 0.0266 0.0053 -0.9996
vn 0.0250 0.0104 -0.9996
vn 0.0225 0.0150 -0.9996
vn 0.0225 0.0151 -0.9996
vn 0.0192 0.0191 -0.9996
vn 0.0192 0.0192 -0.9996
vn 0.0151 0.0225 -0.9996
vn 0.0104 0.0250 -0.9996
vn 0.0053 0.0266 -0.9996
vn -0.0000 0.0271 -0.9996
vn -0.0053 -0.0266 -0.9996
vn -0.0104 -0.0250 -0.9996
vn -0.0150 -0.0225 -0.9996
vn -0.0151 -0.0225 -0.9996
vn -0.0191 -0.0191 -0.9996
vn -0.0192 -0.0192 -0.9996
vn -0.0225 -0.0150 -0.9996
vn -0.0225 -0.0151 -0.9996
vn -0.0250 -0.0104 -0.9996
vn -0.0266 -0.0053 -0.9996
vn -0.0271 -0.0000 -0.9996
vn -0.0266 0.0053 -0.9996
vn -0.0250 0.0104 -0.9996
vn -0.0225 0.0150 -0.9996
vn -0.0225 0.0151 -0.9996
vn -0.0192 0.0191 -0.9996
vn -0.0192 0.0192 -0.9996
vn -0.0151 0.0225 -0.9996
vn -0.0104 0.0250 -0.9996
vn -0.0053 0.0266 -0.9996
vn -0.0000 -0.0270 -0.9996
vn 0.0053 -0.0265 -0.9996
vn 0.0103 -0.0250 -0.9996
vn 0.0250 -0.0103 -0.9996
vn 0.0265 -0.0053 -0.9996
vn 0.0270 -0.0000 -0.9996
vn 0.0265 0.0053 -0.9996
vn 0.0250 0.0103 -0.9996
vn 0.0191 0.0191 -0.9996
vn 0.0150 0.0225 -0.9996
vn 0.0103 0.0250 -0.9996
vn 0.0053 0.0265 -0.9996
vn -0.0000 0.0270 -0.9996
vn -0.0053 -0.0265 -0.9996
vn -0.0103 -0.0250 -0.9996
vn -0.0250 -0.0103 -0.9996
vn -0.0265 -0.0053 -0.9996
vn -0.0270 -0.0000 -0.9996
vn -0.0265 0.0053 -0.9996
vn -0.0250 0.0103 -0.9996
vn -0.0191 0.0191 -0.9996
vn -0.0150 0.0225 -0.9996
vn -0.0103 0.0250 -0.9996
vn -0.0053 0.0265 -0.9996
usemtl Magnifying_Glass
s 1
f 98/1/1 2/2/2 99/3/3
f 99/3/3 2/2/2 100/4/4
f 100/4/4 2/2/2 101/5/5
f 101/5/5 2/2/2 102/6/6
f 102/6/6 2/2/2 103/7/7
f 103/7/7 2/2/2 104/8/8
f 104/8/8 2/2/2 105/9/9
f 105/9/9 2/2/2 106/10/10
f 106/10/10 2/2/2 107/11/11
f 107/11/11 2/2/2 108/12/12
f 108/12/12 2/2/2 109/13/13
f 109/13/13 2/2/2 110/14/14
f 110/14/14 2/2/2 111/15/15
f 111/15/15 2/2/2 112/16/16
f 112/16/16 2/2/2 113/17/17
f 113/17/17 2/2/2 114/18/18
f 98/1/1 115/19/19 2/2/2
f 115/19/19 116/20/20 2/2/2
f 116/20/20 117/21/21 2/2/2
f 117/21/21 118/22/22 2/2/2
f 118/22/22 119/23/23 2/2/2
f 119/23/23 120/24/24 2/2/2
f 120/24/24 121/25/25 2/2/2
f 121/25/25 122/26/26 2/2/2
f 122/26/26 123/27/27 2/2/2
f 123/27/27 124/28/28 2/2/2
f 124/28/28 125/29/29 2/2/2
f 125/29/29 126/30/30 2/2/2
f 126/30/30 127/31/31 2/2/2
f 127/31/31 128/32/32 2/2/2
f 128/32/32 129/33/33 2/2/2
f 129/33/33 114/18/18 2/2/2
f 66/34/34 67/35/35 3/36/35 1/37/34
f 67/35/35 68/38/36 4/39/36 3/36/35
f 68/38/36 69/40/37 5/41/38 4/39/36
f 69/40/37 70/42/39 6/43/40 5/41/38
f 70/42/39 71/44/41 7/45/42 6/43/40
f 71/44/41 72/46/43 8/47/43 7/45/42
f 72/46/43 73/48/44 9/49/44 8/47/43
f 73/48/44 74/50/45 10/51/45 9/49/44
f 74/50/45 75/52/46 11/53/46 10/51/45
f 75/52/46 76/54/47 12/55/47 11/53/46
f 76/54/47 77/56/48 13/57/49 12/55/47
f 77/56/48 78/58/50 14/59/51 13/57/49
f 78/58/50 79/60/52 15/61/52 14/59/51
f 79/60/52 80/62/53 16/63/53 15/61/52
f 80/62/53 81/64/54 17/65/54 16/63/53
f 81/64/54 82/66/55 18/67/55 17/65/54
f 83/68/56 66/34/34 1/37/34 19/69/56
f 84/70/57 83/68/56 19/69/56 20/71/57
f 85/72/58 84/70/57 20/71/57 21/73/59
f 86/74/60 85/72/58 21/73/59 22/75/61
f 87/76/62 86/74/60 22/75/61 23/77/63
f 88/78/64 87/76/62 23/77/63 24/79/64
f 89/80/65 88/78/64 24/79/64 25/81/65
f 90/82/66 89/80/65 25/81/65 26/83/66
f 91/84/67 90/82/66 26/83/66 27/85/67
f 92/86/68 91/84/67 27/85/67 28/87/68
f 93/88/69 92/86/68 28/87/68 29/89/70
f 94/90/71 93/88/69 29/89/70 30/91/72
f 95/92/73 94/90/71 30/91/72 31/93/73
f 96/94/74 95/92/73 31/93/73 32/95/74
f 97/96/75 96/94/74 32/95/74 33/97/75
f 82/66/55 97/96/75 33/97/75 18/67/55
f 34/98/76 35/99/77 67/35/35 66/34/34
f 35/99/77 36/100/78 68/38/36 67/35/35
f 36/100/78 37/101/37 69/40/37 68/38/36
f 37/101/37 38/102/39 70/42/39 69/40/37
f 38/102/39 39/103/41 71/44/41 70/42/39
f 39/103/41 40/104/79 72/46/43 71/44/41
f 40/104/79 41/105/80 73/48/44 72/46/43
f 41/105/80 42/106/81 74/50/45 73/48/44
f 42/106/81 43/107/82 75/52/46 74/50/45
f 43/107/82 44/108/83 76/54/47 75/52/46
f 44/108/83 45/109/48 77/56/48 76/54/47
f 45/109/48 46/110/84 78/58/50 77/56/48
f 46/110/84 47/111/85 79/60/52 78/58/50
f 47/111/85 48/112/86 80/62/53 79/60/52
f 48/112/86 49/113/87 81/64/54 80/62/53
f 49/113/87 50/114/88 82/66/55 81/64/54
f 51/115/89 34/98/76 66/34/34 83/68/56
f 52/116/90 51/115/89 83/68/56 84/70/57
f 53/117/58 52/116/90 84/70/57 85/72/58
f 54/118/60 53/117/58 85/72/58 86/74/60
f 55/119/62 54/118/60 86/74/60 87/76/62
f 56/120/91 55/119/62 87/76/62 88/78/64
f 57/121/92 56/120/91 88/78/64 89/80/65
f 58/122/93 57/121/92 89/80/65 90/82/66
f 59/123/94 58/122/93 90/82/66 91/84/67
f 60/124/95 59/123/94 91/84/67 92/86/68
f 61/125/69 60/124/95 92/86/68 93/88/69
f 62/126/96 61/125/69 93/88/69 94/90/71
f 63/127/97 62/126/96 94/90/71 95/92/73
f 64/128/98 63/127/97 95/92/73 96/94/74
f 65/129/99 64/128/98 96/94/74 97/96/75
f 50/114/88 65/129/99 97/96/75 82/66/55
f 98/1/1 99/3/3 35/99/77 34/98/76
f 99/3/3 100/4/4 36/100/78 35/99/77
f 100/4/4 101/5/5 37/101/37 36/100/78
f 101/5/5 102/6/6 38/102/39 37/101/37
f 102/6/6 103/7/7 39/103/41 38/102/39
f 103/7/7 104/8/8 40/104/79 39/103/41
f 104/8/8 105/9/9 41/105/80 40/104/79
f 105/9/9 106/10/10 42/106/81 41/105/80
f 106/10/10 107/11/11 43/107/82 42/106/81
f 107/11/11 108/12/12 44/108/83 43/107/82
f 108/12/12 109/13/13 45/109/48 44/108/83
f 109/13/13 110/14/14 46/110/84 45/109/48
f 110/14/14 111/15/15 47/111/85 46/110/84
f 111/15/15 112/16/16 48/112/86 47/111/85
f 112/16/16 113/17/17 49/113/87 48/112/86
f 113/17/17 114/18/18 50/114/88 49/113/87
f 115/19/19 98/1/1 34/98/76 51/115/89
f 116/20/20 115/19/19 51/115/89 52/116/90
f 117/21/21 116/20/20 52/116/90 53/117/58
f 118/22/22 117/21/21 53/117/58 54/118/60
f 119/23/23 118/22/22 54/118/60 55/119/62
f 120/24/24 119/23/23 55/119/62 56/120/91
f 121/25/25 120/24/24 56/120/91 57/121/92
f 122/26/26 121/25/25 57/121/92 58/122/93
f 123/27/27 122/26/26 58/122/93 59/123/94
f 124/28/28 123/27/27 59/123/94 60/124/95
f 125/29/29 124/28/28 60/124/95 61/125/69
f 126/30/30 125/29/29 61/125/69 62/126/96
f 127/31/31 126/30/30 62/126/96 63/127/97
f 128/32/32 127/31/31 63/127/97 64/128/98
f 129/33/33 128/32/32 64/128/98 65/129/99
f 114/18/18 129/33/33 65/129/99 50/114/88
