<svg xmlns="http://www.w3.org/2000/svg" viewBox="0 0 104.6 202.06"><style>.st0,.st1{fill:none;stroke:#edc302;stroke-width:4.598;stroke-miterlimit:30}.st1{stroke-linecap:round}</style><path class="st0" d="M90.84 199.76H13.76c-6.34 0-11.46-5.14-11.46-11.46V13.76C2.3 7.43 7.43 2.3 13.76 2.3h77.07c6.34 0 11.46 5.14 11.46 11.46v174.52c.01 6.34-5.13 11.48-11.45 11.48z"/><path class="st0" d="M91.98 171.54H12.61c-1.68 0-3.04-1.37-3.04-3.04V33.57c0-1.68 1.37-3.04 3.04-3.04h79.38c1.68 0 3.04 1.37 3.04 3.04V168.5c0 1.67-1.36 3.04-3.05 3.04z"/><path class="st1" d="M38.81 14.05h26.98"/><circle class="st1" cx="52.3" cy="184.65" r="7.35"/><path fill="none" stroke="#edc302" stroke-width="1.851" stroke-linejoin="bevel" stroke-miterlimit="30" d="M52.3 80.27l19.08 12.37-19.08 12.37-19.08-12.37z"/><path d="M33.22 92.64v22.98l19.08 12.37 19.08-12.37V92.64M52.3 105.01v22.98" fill="none" stroke="#edc302" stroke-width="1.851" stroke-miterlimit="30" stroke-linecap="round"/><path d="M23.2 75.06V60.28h14.78m29.09 0h14.77v14.78m0 52.93v14.77H67.07m-29.09 0H23.2v-14.77" fill="none" stroke="#edc302" stroke-width="1.851" stroke-miterlimit="30"/></svg>