<svg xmlns="http://www.w3.org/2000/svg" viewBox="0 0 20.23 94.74"><style>.st0{fill:none;stroke:#edc302;stroke-width:1.4979;stroke-linecap:round;stroke-miterlimit:30}</style><path class="st0" d="M14.44 53.8h-8.5c-.75 0-1.37-.61-1.37-1.37V19.47c0-.75.61-1.37 1.37-1.37h8.5c.75 0 1.37.61 1.37 1.37v32.97c-.01.75-.62 1.36-1.37 1.36z"/><path class="st0" d="M13.08 18.1H7.15l.07-16.89h5.93zm-.11 39.23H7.39c-.52 0-.94-.42-.94-.94v-2.6h7.45v2.6c.01.52-.41.94-.93.94zm-.68 10.53c0 .39-.31.7-.7.7h-2.8c-.39 0-.7-.31-.7-.7V57.33h4.21l-.01 10.53zm-2.11 26.13V68.56M4.57 24.07h5.19m-5.19 5.82h5.19m-5.19 5.83h5.19m-5.19 5.83h5.19m-5.19 5.82h5.19M.75.75h18.73"/><path d="M8.83 58.81h2.85M8.83 60.1h2.85m-2.85 1.3h2.85m-2.85 1.29h2.85m-2.85 1.3h2.85m-2.85 1.29h2.85m-1.5-63.82l-.06 16.64" stroke-width=".749" fill="none" stroke="#edc302" stroke-linecap="round" stroke-miterlimit="30"/></svg>