<svg xmlns="http://www.w3.org/2000/svg" viewBox="0 0 197.32 456.58"><style>.st0,.st1{fill:none;stroke:#edc302;stroke-width:5.8392;stroke-miterlimit:10}.st1{stroke-width:2.3357}</style><path class="st0" d="M135.69 177.62v83.7l-27.1 176.1-27.2-176.1v-83.7"/><path class="st1" d="M113.49 181.02v62.1l-4.9 115.9-5-115.9v-62.1"/><path class="st0" d="M127.39 23.22c-7.2-14.9-21.8-20.3-42.5-20.3-33.9 0-47.1 20.9-47.1 39.4 0 27.4 22.7 29.6 23.1 29.7 11.2 2.9 12.1 9.2 12.1 56.3v45.8s10.8 7.5 35.3 7.5 35.3-7.5 35.3-7.5v-54.2"/><ellipse class="st0" cx="137.99" cy="70.42" rx="38.4" ry="49.1"/><ellipse class="st1" cx="137.99" cy="70.42" rx="29.7" ry="41.1"/><path d="M137.99 37.32c5.6 0 14.1 4.6 17.5 16.3" fill="none" stroke="#edc302" stroke-width="5.839" stroke-linecap="round" stroke-miterlimit="10"/><path class="st0" d="M5.99 160.72l66.7 11.6v-29.9l-66.7 11.6c-4.1.6-4.1 6 0 6.7zm67-20.9s14-5.5 35.6-5.5 35 5.5 35 5.5"/><ellipse class="st0" cx="108.29" cy="157.32" rx="14.1" ry="13.2"/><ellipse class="st0" cx="77.09" cy="38.02" rx="9.2" ry="8.6"/><path class="st1" d="M62.29 144.22v26.3m-6.2-25.3v24.2m-6.2-23.1v22.1m-6.2-21.1v20m-6.2-18.9v17.9m-6.1-16.9v15.8m-6.2-14.8v13.8m-6.2-12.7v11.7m-6.2-10.7v9.6"/><path class="st0" d="M193.39 90.52s-2.8 7.4-9.2 10c-6.4 2.6-14.1-.5-14.1-.5s2.8-7.4 9.2-10c6.5-2.7 14.1.5 14.1.5zm1 35.1s-10.8.5-17.2-5.5c-6.4-5.9-6.1-16-6.1-16s10.8-.5 17.2 5.5 6.1 16 6.1 16zm-120.5 14.2s-10.8.5-17.2-5.5c-6.4-5.9-6.1-16-6.1-16s10.8-.5 17.2 5.5c6.5 5.9 6.1 16 6.1 16z"/></svg>